<svg xmlns="http://www.w3.org/2000/svg" width="89" height="95.141" viewBox="0 0 89 95.141">
  <g id="music-notes" transform="translate(-10.4 -2.459)" opacity="0.25">
    <path id="Path_246" data-name="Path 246" d="M95.934,2.9a5.6,5.6,0,0,0-5.7.8C76.7,14.4,56.354,18.8,41.818,14.1a5.734,5.734,0,0,0-4.808.6,4.487,4.487,0,0,0-2.236,3.9V67.5a19.568,19.568,0,0,0-6.82-1.3c-9.616,0-17.554,7-17.554,15.7s7.827,15.7,17.554,15.7,17.554-7,17.554-15.7V33.5a57.351,57.351,0,0,0,9.392.8,71.088,71.088,0,0,0,33.766-8.8V59.4a19.568,19.568,0,0,0-6.82-1.3c-9.616,0-17.554,7-17.554,15.7s7.827,15.7,17.554,15.7S99.4,82.5,99.4,73.8V7.3A5.832,5.832,0,0,0,95.934,2.9Z" fill="#ffa617"/>
  </g>
</svg>
