<svg xmlns="http://www.w3.org/2000/svg" width="56.601" height="87.001" viewBox="0 0 56.601 87.001">
  <g id="music-notes2" transform="translate(-21.2 -2.5)" opacity="0.25">
    <path id="Path_247" data-name="Path 247" d="M72.215,12.4A30.5,30.5,0,0,0,49.651,2.5a5.544,5.544,0,0,0-5.788,5.317v50.7A18.734,18.734,0,0,0,38.27,57.6c-9.418,0-17.07,7.151-17.07,15.952S28.852,89.5,38.27,89.5s17.07-7.151,17.07-15.952V13.96a18.016,18.016,0,0,1,8.143,5.226,14.07,14.07,0,0,1,3.63,12.285,57.294,57.294,0,0,1-2.453,7.609c-1.177,3.117,3.041,5.409,5.4,2.934C76.63,34.862,82.516,23.769,72.215,12.4Z" transform="translate(0)" fill="#ff1717"/>
  </g>
</svg>
