<svg xmlns="http://www.w3.org/2000/svg" width="433.289" height="385.167" viewBox="0 0 433.289 385.167">
  <g id="ukulele-pick" transform="translate(-1273.86 -1507.5)">
    <g id="guitar-pick" transform="translate(1578.53 1892.667) rotate(-155)">
      <path id="Path_1" data-name="Path 1" d="M217.011,283.822c-31.038,21.266-77.017,20.514-87.65,20.514s-56.612.752-87.65-20.517S-12.32,216.909,7.228,164.267C28.779,106.213,79.651,37.858,92.579,22.011,101.373,11.237,112.978,0,129.361,0s27.987,11.234,36.785,22.014c12.928,15.847,63.8,84.2,85.355,142.256C271.042,216.909,248.049,262.556,217.011,283.822Z" transform="translate(0 0)" fill="#f9d874"/>
    </g>
    <g id="guitar-pick-2" data-name="guitar-pick" transform="translate(1541.994 1794.472) rotate(150)">
      <path id="Path_1-2" data-name="Path 1" d="M154.66,202.275c-22.12,15.156-54.889,14.62-62.467,14.62s-40.346.536-62.467-14.622S-8.78,154.587,5.151,117.07C20.51,75.7,56.766,26.981,65.98,15.687,72.247,8.008,80.518,0,92.193,0s19.946,8.006,26.216,15.689c9.214,11.294,45.469,60.009,60.831,101.383C193.167,154.587,176.78,187.119,154.66,202.275Z" transform="translate(0 0)" fill="#f8f8dc"/>
    </g>
  </g>
</svg>
