<svg xmlns="http://www.w3.org/2000/svg" width="3094.821" height="2445.283" viewBox="0 0 3094.821 2445.283">
  <g id="ukulele-bg" transform="translate(559.331 -1573.859)">
    <g id="guitar-pick" transform="translate(491.462 2584.868) rotate(139)">
      <path id="Path_1" data-name="Path 1" d="M601.545,724.3c-86.036,54.269-213.489,52.35-242.962,52.35S201.656,778.573,115.62,724.3-34.151,553.544,20.035,419.2C79.775,271.052,220.79,96.613,256.626,56.171,281,28.676,313.17,0,358.582,0s77.58,28.668,101.966,56.18c35.836,40.442,176.851,214.881,236.6,363.032C751.316,553.544,687.581,670.035,601.545,724.3Z" transform="translate(0 0)" fill="#f9d874"/>
    </g>
    <g id="guitar-pick-2" data-name="guitar-pick" transform="matrix(-0.956, -0.292, 0.292, -0.956, 298.83, 3387.667)">
      <path id="Path_1-2" data-name="Path 1" d="M316.855,381.517C271.537,410.1,204.4,409.092,188.878,409.092S106.22,410.1,60.9,381.512s-78.89-89.941-50.348-160.7C42.02,142.773,116.3,50.89,135.174,29.587,148.014,15.1,164.958,0,188.878,0s40.864,15.1,53.709,29.592c18.876,21.3,93.154,113.186,124.625,191.222C395.745,291.571,362.174,352.931,316.855,381.517Z" transform="translate(0 0)" fill="rgba(255,166,23,0.37)"/>
    </g>
    <g id="guitar-pick-3" data-name="guitar-pick" transform="translate(632.311 2964.138) rotate(160)">
      <path id="Path_1-3" data-name="Path 1" d="M223.319,268.892c-31.94,20.147-79.256,19.435-90.2,19.435s-58.258.712-90.2-19.438-55.6-63.39-35.485-113.263c22.178-55,74.528-119.759,87.832-134.773C104.32,10.646,116.262,0,133.121,0s28.8,10.643,37.854,20.856c13.3,15.014,65.655,79.773,87.836,134.773C278.92,205.5,255.259,248.745,223.319,268.892Z" transform="translate(0 0)" fill="#fdc894"/>
    </g>
    <g id="Ukulele" transform="matrix(0.978, -0.208, 0.208, 0.978, 620.132, 1928.191)" opacity="0.38">
      <g id="Layer_2" transform="translate(0 1019.191)">
        <path id="Path_250" data-name="Path 250" d="M1332.824,574.552c-33.542-.839-56.6,6.289-61.634,7.966-28.511,9.643-47.378,24.737-59.956,34.8a225.055,225.055,0,0,0-47.378,53.667c-15.094,23.9-16.352,37.315-35.639,102.722-15.513,52.409-23.06,78.824-29.349,88.467-24.738,40.25-62.472,59.956-93.918,76.727-49.055,25.995-56.6,15.932-116.139,42.346-31.027,13.836-70.858,31.865-111.527,69.181-15.932,14.675-49.055,45.7-72.954,97.272-8.385,18.448-23.06,50.313-25.156,94.756-2.516,48.217,10.9,83.855,18.867,105.238,17.19,45.282,40.25,73.373,71.277,110.689a636.214,636.214,0,0,0,80.92,81.759c41.509,34.8,76.728,55.764,99.788,69.6,32.7,19.287,68.342,39.831,118.655,57.021,51.152,17.19,97.691,33.123,157.648,23.06,12.578-2.1,49.475-9.643,90.144-34.38,31.446-19.287,51.152-40.67,62.891-53.248,10.063-11.32,29.349-32.7,45.282-65.407,11.74-23.9,16.352-42.346,23.479-70.438,6.289-25.156,15.513-63.31,18.448-114.882,3.354-54.506-3.773-64.568,3.354-114.882,4.612-32.284,10.9-50.313,20.964-67.084,12.578-20.545,27.672-32.7,40.25-43.6,20.545-16.771,47.378-33.123,67.084-45.282a172.559,172.559,0,0,0,18.867-12.578c3.774-2.935,13.836-10.063,23.479-19.286,13-12.159,20.544-23.06,32.284-38.993,17.61-25.157,26.834-37.316,32.284-54.087,5.87-16.771,7.128-31.026,7.966-40.67,2.1-26.834-2.1-47.378-3.774-53.667-1.258-5.451-6.708-28.931-25.576-58.7s-38.993-47.378-70.438-74.631c-20.964-18.029-37.316-30.188-70.019-53.667-46.12-33.961-69.6-50.732-85.952-59.957C1425.064,597.193,1385.653,576.229,1332.824,574.552Z" transform="translate(-678.863 -574.484)" fill="#ffa617"/>
      </g>
      <g id="Layer_3" transform="translate(765.488 0)">
        <path id="Path_251" data-name="Path 251" d="M689.426,1525.916,519.2,1407.262Q661.964,1217.33,804.308,1027.4q144.65-193.076,289.3-386.992c.838-5.45,1.258-10.9,1.677-16.771.419-7.966.419-15.513.419-22.221v-21.8L1255.448,331.4a213.44,213.44,0,0,0,53.248,30.188A220.755,220.755,0,0,0,1360.686,375c3.774.419,7.967.839,11.74,1.258l9.644,6.708c.838,2.935,1.677,5.451,2.515,8.386,2.516,6.708,8.8,22.641,37.735,48.636,0,0,4.612,4.193,35.638,29.349l-4.193,6.289c-58.7,75.889-117.4,151.359-176.1,227.248l-20.964,7.966-15.513,7.547-17.61,10.482Q961.326,1120.687,698.65,1512.5C695.3,1517.112,692.361,1521.3,689.426,1525.916Z" transform="translate(-519.2 -331.4)" fill="#ffa617"/>
      </g>
    </g>
  </g>
</svg>
