<?xml version="1.0" encoding="utf-8"?>
<!-- Generator: Adobe Illustrator 26.0.1, SVG Export Plug-In . SVG Version: 6.00 Build 0)  -->
<svg version="1.1" xmlns="http://www.w3.org/2000/svg" xmlns:xlink="http://www.w3.org/1999/xlink" x="0px" y="0px"
	 viewBox="0 0 1920 1080" style="enable-background:new 0 0 1920 1080;" xml:space="preserve">
<style type="text/css">
	.st0{display:none;}
	.st1{display:inline;fill:#BCC487;}
	.st2{fill:#FFE8A2;}
	.st3{fill:none;stroke:#FFCD2E;stroke-miterlimit:10;}
	.st4{fill:#FFA617;}
	.st5{fill:#725956;enable-background:new    ;}
	.st6{fill:#F9F9EE;stroke:#E4BC94;stroke-miterlimit:10;}
	.st7{fill:none;stroke:#E4BC94;stroke-miterlimit:10;}
	.st8{fill:none;stroke:#664D4B;stroke-miterlimit:10;}
	.st9{fill:none;stroke:#FFCC8B;stroke-miterlimit:10;}
	.st10{fill:#FFA345;}
	.st11{fill:none;stroke:#FF6600;stroke-miterlimit:10;}
	.st12{fill:#F9F9EE;stroke:#FF6600;stroke-miterlimit:10;}
</style>
<g id="Layer_5" class="st0">
	
		<image style="display:inline;overflow:visible;" width="1200" height="900" xlink:href="ADAB1371.jpg"  transform="matrix(1 0 0 1 254 -931)">
	</image>
</g>
<g id="Layer_4" class="st0">
	<path class="st1" d="M1501,155c12.8,1.8,94.3,13.4,123,73c32.4,67.4-41.3,116.5-16,205c20.8,72.8,81.2,76.5,80,127
		c-1.8,78.5-148.4,111.1-140,173c4.8,35.6,54.6,35.4,81,99c5.4,13,21,50.7,7,90c-15.3,43-59.3,69-95.2,76
		c-77.6,15.2-102.8-60.9-194.8-86c-138.3-37.8-202.3,101-408.7,84c-100.1-8.3-135.4-44.7-148.2-63.1c-20.2-29.1-35.2-75-24.1-98.2
		c1.2-2.6,7.8-15.4,10.3-20.2c8.7-17,15.6-30.2,16.2-31.2c16.5-30.9,145.2-75.1,197.4-98.2c32.4-14.3,106.5-45.7,153.5-114.9
		c65.8-97,21.5-193.8,90.1-234.9c31.5-18.9,65-13.1,85.5-45.3c16.4-25.9,2.8-42.2,14.5-69.4C1354.4,169.9,1436.2,145.8,1501,155z"/>
</g>
<g id="Layer_2">
	<path class="st2" d="M1292.6,451.5c0.3-4.3,0.7-8.7,2.6-14.2c0.3-0.9,0.6-1.8,1-2.6"/>
	<path class="st2" d="M1296.1,434.8c2.1-5.2,4.7-9,6.9-12c2.4-3.4,4.7-6.6,8.7-9.8c1.3-1.1,2.6-1.6,4.4-3.3c0.5-0.5,2.2-2,5.5-6.5
		c1.2-1.6,2.7-3.8,4.4-6.5c8-13,9-16.8,14.2-24c3.2-4.4,3.5-4.1,7.6-9.8c4.8-6.7,4.7-7.7,7.6-10.9c3.1-3.4,7.9-8.7,14.2-8.7
		c2.3,0,1.9,0.7,7.6,2.2c7.4,1.9,11.4,3,15,1c2.5-1.4,4.7-4.1,5.7-5.4c1-1.3,1.6-2.3,2.2-3.3c1.8-2.9,5-8.3,8.7-13.1
		c2.7-3.4,3.1-3.2,5.5-6.5c2-2.8,2.1-3.4,4.4-6.5c1.8-2.4,3.2-4.3,5.5-6.5c2.3-2.2,4.4-3.6,5.5-4.4c2.5-1.7,3.3-1.9,5.5-3.3
		c2.8-1.8,3.9-3.1,6.5-5.5c3.2-2.9,7.9-7,14.2-9.8c3.5-1.6,5.3-2.4,7.6-2.2c3.9,0.4,4.6,2.9,9.8,4.4c3.6,1,4.1,0,7.6,1.1
		c2,0.6,3.7,1.5,7.6,4.4c4.4,3.2,6.6,4.7,9.8,7.6c5.9,5.3,14.2,12.9,19.6,25.1c0.4,0.9,1.7,5,4.4,13.1c3.5,10.8,5.3,16.2,6.5,20.7
		c1.1,3.8,4.2,15.3,6.5,30.5c1.1,7,1.9,12.8,2.2,20.7c0.2,7.9,0,14.2,0,14.2c-0.2,4.7-0.4,6.4,0,9.8c0.1,1,0.3,2.3,2.2,9.8
		c2,8.1,2,7.4,2.2,8.7c0.8,5.8,0.2,11.6,0,13.1c-0.4,3.4-0.9,5.2,0,7.6c0.6,1.6,1.3,2.1,2.2,4.4c0.5,1.5,0.7,2.6,1.1,5.5
		c0.9,7.5,0.5,7.3,1.1,9.8c0.9,3.4,1.7,3.4,2.2,6.5c0.3,1.9,0,2,0,6.5c0,5.5,0.4,5.8,0,8.7c-0.3,1.9-0.4,1.5-1.1,5.5
		c-0.7,3.8-0.5,4.2-1.1,5.5c-1,2.2-2.1,2.6-2.2,4.4c0,0.3,0,0.9,1.1,3.3c1.5,3.3,2.2,3.9,3.3,6.5c0.5,1.2,0.8,2.3,1.1,3.3
		c0.4,1.2,0.4,1.7,1.1,4.4c0.8,3.1,0.6,3.4,1.1,4.4c0.6,1.3,1,1.3,1.6,2.7c0.2,0.4,1.4,3.2,0.5,3.8c-0.6,0.4-1.9-0.3-3.3-1.1
		c-1.8-1-1.8-1.5-3.3-2.2c-1.6-0.7-2-0.3-3.3-1.1c-0.2-0.1-1.3-0.8-2.2-2.2c-0.7-1.2-0.7-2-1.1-3.3c-0.3-1.1-0.9-2.6-2.2-4.4
		c-0.8-0.1-1.9-0.1-3.3,0c-1,0.1-2.6,0.3-5.5,1.1c-4.7,1.4-4.4,2.1-6.5,2.2c-1.5,0-2.8-0.3-5.5-1.1c-1.5-0.4-1.8-0.6-3.3-1.1
		c-4.2-1.4-5.2-1.1-8.7-2.2c-3.8-1.2-3-1.7-5.5-2.2c-2.2-0.5-2.8-0.1-8.7,0c-1.7,0-0.9,0-5.5,0c-6.4,0-6.3,0.1-7.6,0
		c-3.4-0.2-6.2-0.8-7.6-1.1c-1.9-0.4-2.8-0.7-4-0.9c-0.6-0.1-1-0.2-1.4-0.2c-1-0.1-3.9-0.4-4.9,0.5c-1.2,1.1,0.8,4,2.2,8.7
		c2.4,7.8,0,9.8,2.7,15.8c0.6,1.3,1.2,2.7,2.2,5.5c1.5,4.1,1.5,5,1.1,5.5c-0.5,0.4-57.5,13.8-79.6,17.4c-1.9,0.3-10,1.6-20.7,2.2
		c-12.3,0.6-29.1-1.1-36-1.1c-6.4,0-6.5,0-6.5,0c-0.2,0-0.6,0-1,0c-0.1,0-1.1,0-2.3,0c-4.3-0.1-6.4-0.2-7.1-0.5
		c-3.2-1.9-0.3-11.9,0-13.1c-0.1-1.3-0.1-2.7,0-4.4c0.2-2.7,0.8-4.9,1.5-6.6l-1.1-9.8l-2-8.2l-1.1-3.3c-0.6-1.3-1.7-3.3-3.3-5.5
		c-2.2-2.9-3.2-3.3-7.6-7.6c-3.5-3.4-6.5-6.3-8.7-9.8c-0.4-0.7-0.9-2-2.2-3.3c-1.6-1.5-3.4-2.2-4.9-2.7c-2-0.7-3.5-1-4.4-1.1
		c-7.2-1.2-10.8-1.8-12-3.3c-1.6-1.9-1.7-5.1-0.5-7.1c0.1-0.2,0.4-1,2.2-2.2c2.4-1.6,3.5-2.4,5.5-3.3c3.3-1.5,5.3-4.5,8.7-9.8
		c1.6-2.4,4-6.3,5.5-12c0.6-2.5,0.8-5,1.1-9.8c0.5-8.7,0-9.6,0.5-15.9"/>
	<path class="st3" d="M1386.9,348.6"/>
	<path class="st3" d="M1384.7,347.5"/>
	<path class="st3" d="M1210.3,725.8"/>
	<path class="st2" d="M1288.3,732.9c16.8-6.2,28.3-12.2,31.1-13.6c21-11.1,30.5-20.1,36-26.2c0,0,0,0,0,0
		c2.5-15.6,5.1-31.3,7.6-46.9c4,0.6,9.2,1.4,15.3,2.2c10.7,1.4,18.7,2,20.7,2.2c3.6,0.3,10.1,0.8,18.5,1.1c9.1,0.3,15.6,0.2,24,0
		c14.5-0.3,26.4-1,27.3-1.1c6.9-0.4,13.8-0.6,20.7-1.1c14.6-1,19.5-1.9,21.8,1.1c2.2,2.8,0.5,6.8-1.1,13.1
		c-2.4,9.6-2.1,19.6-3.3,29.4c-5.2,41.8-5.6,45.8-7.6,55.6c-1.9,9.1-4,17-4.4,18.5c-1.2,4.6-2.2,8-7.6,26.2
		c-3.9,13-5.9,19.5-6.6,21.3c-2,5.1-5.7,14.2-13,24.5c-7.3,10.2-14.6,16.5-19.6,20.7c-5.2,4.4-14.7,12.3-29.2,18.7
		c-12.5,5.5-22.8,7.2-30.8,8.6c-6.9,1.2-15.7,2.7-27.3,2.2c-8.1-0.3-10.2-1.3-18.5-1.1c-7.2,0.2-7.3,1-19.6,2.2
		c-10.1,1-7.9,0.1-21.8,1.1c-5.5,0.4-8,0.7-12,0c-4.7-0.8-7-2.2-12-4.4c-9.7-4.1-10.1-2.6-24-7.6c-10.4-3.8-9-4.2-14.2-5.5
		c-7.6-1.8-10.6-0.9-19.6-3.3c-1.1-0.3-0.9-0.3-9.8-3.3c-10-3.4-15-5.1-16.4-5.5c-8.9-2.6-10.6-2.2-21.8-5.5
		c-4.1-1.2-6.8-2.1-9.8-3.3c-3.3-1.3-4.4-2-7.6-3.3c-2.1-0.8-4.3-1.6-9.8-3.3c-11.9-3.6-13.1-3.4-18.5-5.5c-2.3-0.9-4.8-2-9.8-4.4
		c0,0-7.1-3.6-17.4-8.7c-7.4-3.6-8.8-4.2-11-4.3c-3-0.2-4.8,0.4-7-1c-1-0.7-3.7-2.9-5-4c-0.4-0.3-1.1-1-2.2-1
		c-0.8,0-1.2,0.4-2.1,0.5c-5.8,1.2-7,0-12,1.1c-2,0.5-1.3,0.5-6.5,2.2c-3.6,1.1-4.7,1.3-7.6,2.2c-9.1,2.6-8.3,3.6-13.1,4.4
		c-3.5,0.6-4.4,0.2-9.8,1.1c-2.6,0.4-3.1,0.7-5.5,1.1c-6.4,1.2-6.7,0.3-10.9,1.1c-5.6,1.1-7.4,3.2-15.1,6.4
		c-0.4,0.2-1.3,0.5-2.3,1.2c-1.6,1.1-2.5,2.2-3.3,3.3c-0.4,0.6-1.7,1.9-4.4,4.4c-1.5,1.4-3.6,3.3-6.5,5.5c-2.7,2-4.9,3.4-6.5,4.4
		c-2.4,1.4-3.4,2-5.5,3.3c-0.5,0.3-1.8,1.1-3.3,2.2c-1.2,0.9-2.8,2.1-4.6,3.7c-1.5,2.1-3,3.8-4.1,5c-2.7,2.9-2.6,2-7.6,6.5
		c-1.3,1.1-2,1.8-3.3,2.2c-1.8,0.5-3.4,0-4.9-0.5c-1.3-0.5-3-1.3-4.9-2.7l-6.5-5.5c-2.1-1.8-5.5-6.5-5.5-6.5s-19.6-19.6-26.2-33.6
		c-1.1-2.2-3.9-4.8-4.3-5.7c-1.5-3.1-2.3-8-1.1-13.1c0.4-1.5,1.4-3.3,3.2-5.8c2.6-3.6,6.8-8.8,13.2-17.1c5.2-6.7,8.8-12.6,14.2-19.6
		c10.1-13,21.7-26.9,31.6-40.3c12-16.3,23.3-34.3,37.1-49.1c4.5-4.9,7.9-11.2,13.1-15.3c0.8-0.6,2.1-2.5,4.4-4.4
		c0.5-0.4,2.2-1.8,4.9-3.4c2.8-1.7,5.1-2.6,6-3c2.8-1.2,6.8-3.2,12-6.7c16.3-13.2,20.1-14.7,28.3-17.4c1.8-0.6,6.2-2.2,8.7-3.3
		c25.1-10.3,52.1-1.4,77.4-8.7c3-0.9,6.1-4.4,9.1-5.7c8.5-3.8,19.3-9.1,26.9-15c3.6-2.8,7.6-3.4,10.9-4.4c0.6,1,1.4,2.5,2.2,4.4
		c1.4,3.3,2,5.6,2.7,8.2c1.4,4.9,2,5.1,3.8,10.4c0,0,1.9,5.4,3.3,12c2.2,10.3-0.4,20.5-1.6,26.7c-2.3,11.1-9.1,44.2,6,63.8
		c2.4,3.1,4.9,5.3,6.5,6.5c2,2.1,4.8,4.9,8.7,7.6c13.1,9.2,26.7,10.1,31.1,10.4C1260,743.3,1269.4,739.9,1288.3,732.9z"/>
	<path class="st3" d="M918.8,865.6"/>
	<path class="st3" d="M919.8,866.4"/>
	<path class="st3" d="M1313.9,542.8"/>
	<path class="st3" d="M1377.1,347.5"/>
	<path class="st3" d="M1401.3,373c-4.6,17.3-9.2,34.7-10.2,52.6c-1.5,25.8,4.4,51.5,11.1,76.5c4.4,16.3,9.7,33.4,22.1,44.9
		c2.1,2,4.5,3.9,5.5,6.7c2,6-3.9,12.4-2.2,18.5"/>
	<path class="st3" d="M1460,536.1c-5.6,2.4-7.8,5.4-8.7,7.6c-2,4.7,0.5,8-2.2,14.2c-1.3,2.9-3,4.9-4,6c-1.3,1.5-3.9,4.4-8.3,6.3
		c-3.8,1.7-7.3,1.9-9.5,1.8"/>
	<path class="st3" d="M1461.5,665.2c-8.5,55-33.3,107.5-70.3,149"/>
	<path class="st3" d="M1483.5,677.9c-26.1,35.8-29.9,84-54.9,120.6"/>
	<path class="st3" d="M1431.1,689.8c-9.1,8.9-16,19.7-23.1,30.3c-23.2,34.3-49.5,66.5-78.6,96.1"/>
	<path class="st3" d="M1426.6,662.5c-8.3,8.5-16.6,17.1-24.9,25.6c-6.6,6.8-13.2,13.6-20.4,19.6c-7.2,6-15,11.3-22.5,16.9
		c-17.9,13.5-34.1,29.1-52,42.5c-17.9,13.4-38.1,24.8-60.3,28"/>
	<path class="st3" d="M996.5,727c12,21.6,29.3,40.2,49.9,53.8"/>
	<path class="st3" d="M1022.7,786c-6.5,4.9-13.6,9.1-21,12.5c-9.8,4.6-20.3,7.7-30,12.5c-10.5,5.2-19.9,12.4-29.3,19.4"/>
	<path class="st3" d="M1079.2,789.1c13.1,6.6,26.4,13.3,40.9,15.3c4.4,0.6,8.8,0.8,13.2,1c9.5,0.4,19.1,0.8,28.6,1.1"/>
	<path class="st3" d="M1056,647.4c13.6,4.8,27.2,9.6,40.9,14.4c9.9,3.5,19.9,7,28.8,12.6c11.8,7.4,21.4,18.2,34.1,23.8"/>
	<path class="st3" d="M1060.5,671.7c-0.4,0.5,0.3,1.2,0.9,1.5c18.2,9.7,36.4,19.3,54.6,29"/>
	<path class="st3" d="M1163.3,630.4c-16.3,8.1-34.2,12.7-52.4,13.5"/>
	<path class="st3" d="M976.6,743.2c-0.6,20-7.7,39.8-19.9,55.7"/>
	<path class="st3" d="M1150.5,823.3c25.7,2.1,46.9,20.5,71.6,27.9c12.3,3.7,25.2,4.6,38,5.4"/>
	<path class="st3" d="M1177.2,844c16.7,11.2,36,18.4,55.9,20.8"/>
	<path class="st3" d="M1096.5,814.5c7.1,4.3,12.9,5.6,17,6c3.3,0.3,5.5,0,10,1c4.1,0.9,8.3,1.8,11,5c3,3.6,1.9,7.3,2.8,11.1
		c1.2,5,6.4,11.1,24.2,15.9"/>
	<path class="st3" d="M1298.4,876.6c11.6-1.2,23.2-3.6,34.3-7.2c13.1-4.1,25.8-9.9,36.6-18.4"/>
	<path class="st3" d="M1357.7,877.8c9.8-2.2,19.1-6.7,26.9-13.2"/>
	<path class="st3" d="M1371.1,449.4c-3.7,13.5-9.1,26.6-15.9,38.8c-6.5,11.5-14.4,22.8-16,35.9"/>
	<path class="st3" d="M1373.9,484.4c-9.2,15-15.6,31.7-18.8,49c-1.3,7.3-2.2,14.8-5.3,21.5"/>
	<path class="st3" d="M1391.1,522.1c-8.4,15.4-16.9,31.2-19.1,48.6"/>
	<path class="st3" d="M1292.9,485.7c1.7,10.8,4.1,22.7,12.9,29.3"/>
	<path class="st3" d="M1441.2,394.7c18.5,27.2,31.4,57.7,47,86.6"/>
	<path class="st3" d="M1430.3,417c-0.1,8.8,2.4,17.7,7.2,25.1c4.5,7,10.8,12.6,16.5,18.7c7.8,8.4,14.4,17.8,19.7,27.9
		c5.5,10.6,9.6,23.1,5.5,34.4"/>
	<path class="st3" d="M1439,538c3.1-5.1,8.3-8.8,14.1-10.2c4.1-1,8.6-0.9,11.8-3.6"/>
	<path class="st3" d="M1497.1,521.9c8.6-1.8,17.3-3,26-3.7c2.7-0.2,5.7-0.3,7.7,1.6"/>
	<path class="st3" d="M1483.5,300.2c-8.4,5.3-15.2,14.7-13.8,24.6c1,6.4,5.3,11.8,10.2,16.1c4.9,4.3,10.5,7.6,15.3,12
		c13.7,12.3,19.8,30.6,25.4,48.1"/>
	<path class="st3" d="M1458.4,348.4c11.9,11.3,23.8,22.6,35.7,33.9c8,7.6,16,15.2,21.7,24.6c4.9,8,8.1,17.2,14.9,23.6"/>
	<path class="st3" d="M1480.6,392c2.3,0.6,4,2.4,5.5,4.2c8,9,15.1,18.6,21.4,28.9c2.2,3.7,4.4,7.4,6.5,11.2
		c3.5,6.1,7,12.2,10.4,18.4"/>
	<path class="st3" d="M1506.9,462.7c1.8-0.4,3,1.9,3.4,3.7c2.6,11.1,2.7,22.7,0.4,33.9"/>
	<path class="st3" d="M1411.6,357.9c4.5-0.5,8.3-3.5,12.3-5.8c6.7-3.9,14.4-6.2,22.2-6.5"/>
	<path class="st3" d="M1374.5,358.6c-1.8,7.7-0.5,16,3.6,22.8"/>
	<path class="st3" d="M1116.7,767.1c7.8-10.9,20.6-17.3,33.7-19.9s26.6-2,40-1.4"/>
	<path class="st2" d="M1561.9,559.6"/>
	<path class="st2" d="M890.8,856.2"/>
	<path class="st2" d="M660.5,863.1C537.1,854.6,488.9,962,310,999c-55.1,11.4-108.2,13.1-198,45c-41.1,14.6-32.8,15.2-59,23
		c-88.7,26.4-134.1,4.4-232,28c-11.2,2.7-26.8,7.8-58,18c-177.8,58.1-266.8,87.2-266,117c1,40.5,161.7,66.3,185,70
		c103,16.5,184.3,8.3,214,5c325.5-35.8,379.2-126.5,507-81c111,39.6,100.7,116.4,210.3,141.8c103,23.9,155.7-47.7,313.2-91.7
		c147.4-41.2,302.1-46.6,455.1-49.7c333.2-6.9,461,24.2,461,24.2c23.3,1.9,60.6,5.3,106.3,11.1c155.5,19.6,223.7,43.1,242.1,15.3
		c9-13.6-3.6-24.9-17-74c-13.9-51.1-6.7-62.4-20-216c-5.1-59.4-8.9-88.4-32-106c-20.2-15.4-44.9-13-55-14
		c-243-24.7-417.4-42.7-477-45c0,0-91.3-3.6-99-37c0-0.2-0.4-2-1-2c-1.5-0.1-2.9,11.2-3.8,15.1c-2.8,13.5-15,23.4-30.8,33.3
		c-46.2,28.8-136.7,61.1-168.5,52.6c-1.5-0.4-9.6-2.7-21-5c-10.8-2.2-16.8-2.8-24-4c-13-2.2-22.2-5-35-9
		c-37.3-11.6-63.2-24.7-100.6-36.5c-35.4-11.2-53.1-16.4-68.3-15c-28.8,2.7-53.6,20.9-81.4,29c-15.2,4.4-44.1,8-54-5.4
		c-10.7-14.6,7.4-42,2.2-45c-5-2.9-18.9,24.9-45.2,44.5c-31.2,23.2-67.2,27-123.9,28.3C695.9,864.7,666.2,863.5,660.5,863.1z"/>
	<path class="st2" d="M928,803"/>
	<path class="st2" d="M1232,868"/>
</g>
<g id="Layer_1">
	<path class="st4" d="M1198.7,634.7c-0.2,6.4-3.2,12.4-5.5,18.4c-5,12.9-8.4,29.3-2.9,45.2c3,8.6,7.9,14.3,14.1,21.5
		c3.5,4.1,9.2,10.6,18.5,16.4c5.2,3.2,10.2,6.3,17.4,7.6c6.9,1.3,12.6,0.1,24-2.2c8.9-1.8,15.7-4,19.6-5.5
		c7.1-2.6,12.5-5.1,17.4-7.6c21.8-11,36.8-18.6,51.2-32.7c5-4.9,7.8-8.4,9.8-13.1c3.6-8.4,2.9-16.2,2.2-24
		c-0.9-9.9-3.5-17.1-4.4-19.6c-1.3-3.4-4-10.3-9.8-17.4c-5.7-7-12.9-12.4-24-20.7c-3.7-2.8-8.4-6.1-9.8-12c-0.6-2.4-0.3-3.8,0-7.6
		c0.1-1.4,1-12.9,0-22.9c-0.8-7.6-1.1-11.3-3.3-15.3c-3.5-6.5-6.9-5.6-14.2-14.2c-5.5-6.5-4.7-8.3-9.8-13.1c-4.9-4.5-9.9-6.8-12-7.6
		c-9.8-4-18.5-2.8-22.9-2.2c-3.2,0.5-6.2,1.4-12,3.3c-9.2,2.9-16.2,5.2-24,9.8c-5.7,3.4-9.3,6.6-14.2,10.9
		c-9.5,8.5-15.5,13.8-19.6,22.9c-3.1,6.8-3.7,12.7-4.4,18.5c-0.7,6.3-1.3,12.6,1.1,19.6c1.5,4.3,3,5.8,5.8,10.4
		C1190.2,606.5,1199.2,620.7,1198.7,634.7z"/>
	<path class="st5" d="M1458.3,280.5c0,0-1.2,0.1-2.4,0.5c-2.7,0.9-10.5,9.2-16.1,13.7c-6.9,5.5-7.8,5-13.1,9.8c-3.2,3-5.8,6-10.9,12
		c-7,8.3-10.5,12.4-13.1,16.4c-7.3,10.7-9.9,18.5-13.6,18c-1.8-0.2-1.5-2.1-4.9-3.8c-3.8-1.9-7.7-1.4-9.8-1.1
		c-2.4,0.3-3,0.9-3.3,1.1c-1.5,1.4-1.6,3.8-1.6,6c-0.1,3.1,0.5,3.9,0,4.4c-1.8,1.5-9-6.2-12-4.4c-0.7,0.5-1,1.4-1.1,2.2
		c-0.3,2-1.1,3.4-1.6,4.2c-0.6,0.9-1.2,1.9-2.3,2.1c-0.6,0.1-1.3,0-2.1-0.4c-2.3-1.2-7.1-3.7-11.1-8.6c-6.2-7.7-6.6-16.6-6.6-20
		c-4.4,6.9-9.2,17.2-6.3,27.5c1.7,6.1,5,8,6.3,13.3c1.5,6.1,0.4,15.9-13.6,31.1c-4.9-7.7-7-8.9-8-8.5c-1.5,0.6-0.5,4.8-3.3,10.9
		c-1.1,2.4-2,4.3-3.3,4.4c-2.4,0.2-3.1-6-8.7-12c-1.7-1.8-6.4-6.8-9.8-5.5c-2.4,1-3.6,5.1-3.3,9.8c2.4,18.7,1.5,23.6,0,24
		c-1.9,0.5-3.1-6.2-9.9-10.4c-8.4-5.3-16.7-1.2-19.6-5.9c-1.4-2.3-0.5-4.9,1.1-9.8c2.7-8.7,5.7-19.9,5.5-25.1
		c-0.5-13-13.4-15.9-20.3-27.6c-12.9-22,16.8-38.3,18.2-87.9c0.5-19.9-3.4-47.2,0-67.6c0.9-5.3,1.5-10.6,2.3-15.9
		c2.3-15.7,3.2-18.6,1.7-23c-2.8-8.2-6.5-7.6-8.6-15.6c-2.5-9.2,1.4-17.7,4.7-25.1c4.3-9.6,10.2-16.2,14.2-20.7
		c5.7-6.4,8.3-7.7,14.2-15.3c4.7-6.1,4.6-7.3,7.8-10.7c4.7-4.9,9.8-7.7,18.3-11.1c14.4-5.8,26.4-8.8,34.9-10.9
		c17.4-4.2,26.1-6.4,28.3-6.5c28.1-2.1,50.1,13.1,53.9,15.9c13.7,9.8,20.1,20.8,31.1,39.7c6.4,11,14.7,25.2,19.6,45.4
		c5.1,20.7,2.7,26.8,9.6,44.2c2.7,6.8,6.6,13.2,8,20.4c1.9,9.4-0.3,12.6,0.1,24.6c0.4,10.5,0.7,19.1,5.1,27.7
		c4.4,8.7,13.5,18.6,22.9,25.1c3.2,2.2,9.5,6.2,10.9,13.1c0.4,2.2,0.2,4.1,0,5.5c0,4.2-0.4,15.7-7.6,21.8c-1.3,1.1-6.4,5.4-9.3,3.8
		c-0.5-0.3-0.9-0.7-1.1-1.1c-0.2-0.4-0.6-1.2-1.1-2.2c-1.4-2.9-2.1-5.2-2.2-5.5c-0.7-2.1-6.9-8.8-27.8-26.7
		c-1.7-1.2-4.1-2.9-7.6-4.4c-3.1-1.2-5.2-1.5-8.7-2.2c-6.5-1.3-7.1-1.5-8.2-2.1c-0.3-0.2-1.6-0.9-3.4-1.1
		C1459.1,280.5,1458.5,280.5,1458.3,280.5z"/>
	<path class="st6" d="M1294.7,181.3c4.2,5.2,3.4,5.8,7.3,11.1c10.9,14.8,18.3,13,25.9,24.6c3.7,5.7,4.6,12.9,8.1,18.7
		c2.3,3.9,6.8,5.9,9.7,11.9c1.5,3.1,2.2,5.9,2.5,7.8c-0.1,1.5-0.6,3.7-2.2,5.5c-1.7,2-3.9,2.4-14,3.3c-8.9,0.8-10.7,0.8-13.2-0.1
		c-2.2-0.7-5-1.7-6.5-4.4c-0.9-1.5-1-4.3-1.1-9.8c-0.1-3.8,0-5.2-1.1-6.5c-1.3-1.5-2.4-0.8-4.4-2.2c-2.4-1.7-1.7-3.5-4.4-7.6
		c-1.8-2.8-2.3-2.3-4.4-5.5c-0.6-1-2.1-3.3-3.3-6.5c-1.8-4.8-1.1-6.6-3.3-8.7c-1.4-1.4-3.3-2.2-3.3-2.2c-2.1-0.9-3-0.3-4.4-1.1
		c-1.7-1.1-2.2-3.3-2.5-5c-0.5-2.7-0.2-4.9,0.3-8.1c1.5-8,2.1-8,2.2-10.9c0.1-3.9-1-6.9-2.2-9.8c-2.8-7.2-7.1-11.5-6.5-12
		c0.4-0.3,2.3,1.3,3.1,1.9C1287,173.8,1291.9,177.8,1294.7,181.3z"/>
	<path class="st7" d="M1296.3,222.6c0.7-1.2,2-2,3.4-2.4c1.4-0.4,2.8-0.4,4.3-0.4c3.7,0,7.3,0,11,0"/>
	<path class="st7" d="M1314.1,223.9c-4.8,1.3-8,5.7-10.8,9.8"/>
	<path class="st7" d="M1317,230.6c-2.3,3.3-4.6,6.6-6.9,9.9"/>
	<path class="st7" d="M1303.5,203.4c-0.6,0.3-1.4,0.5-2.2,0.6c-1,0.1-2,0.1-2.9,0c-0.6-0.1-1.2-0.3-1.8-0.4
		c-1.3-0.3-2.8-0.5-4.1-0.2c-1.6,0.4-2.4,1.3-3.1,2.1"/>
	<path class="st7" d="M1294.9,212.5c3.2-1,6.2-3.2,8.6-6.1"/>
	<path class="st8" d="M1313.1,123.3c17,21.4,34.1,43.1,45.5,68c3,6.5,5.6,13.3,9.6,19.2c5.7,8.4,13.8,14.8,21.9,21"/>
	<path class="st8" d="M1345.9,98.9c12.2,30.8,26.8,60.7,43.8,89.2c9.6,16.2,20.3,33.2,19.9,52"/>
	<path class="st8" d="M1363.9,81.6c32.4,34.8,53.4,80,59.1,127.2c0.9,7.3,1.4,14.8,4,21.8s7.6,13.4,14.6,15.7"/>
	<path class="st8" d="M1402.5,71.4c12,20.1,34.7,32.1,46.2,52.4c14.1,24.9,8.4,56.6,18.3,83.5c4.1,11.2,10.9,21.4,14.2,32.9
		c2.9,10.4,4.1,23.3,13.9,28"/>
	<path class="st8" d="M1300.7,263.2c-1.9,11-3.8,22.1-5.7,33.1c-1.6,9.3-3.2,18.6-5.9,27.5c-2,6.5-4.6,12.9-6.5,19.4
		c-3.1,10.5-4.5,21.5-4.2,32.5"/>
	<path class="st8" d="M1316.4,306c0.7,9.6-1.7,19.1-3.2,28.6c-2.3,14.8-2.4,29.9-2.5,44.9"/>
	<path class="st8" d="M1284.2,245.2c-11.6,15.6-9,37.3-14.4,56c-1.6,5.4-3.8,10.6-4.7,16.1c-1.2,7.5,0.3,15.2-0.8,22.7
		c-0.8,5.9-3.3,11.6-7,16.3"/>
	<path class="st8" d="M1279.9,105.7c-0.4,4.8-0.5,9.6-0.2,14.5c0.2,4.1,0.6,8.3,2.1,12.1c2.6,6.5,8,11.3,11.9,17.1
		c4,6.2,6.4,13.7,12.4,18.1c4.5,3.3,10.8,4.6,13.6,9.4"/>
	<path class="st8" d="M1309.8,76.9c8.9,13.9,15.3,29.2,19,45.3"/>
	<path class="st8" d="M1354.8,288.1c-3,14.1,4.2,29.8,16.9,36.7"/>
	<path class="st8" d="M1350.4,320.3c0.6,3.6,1.1,9.5-0.6,16.4c-1.1,4.4-2.7,7.9-4.2,10.4"/>
	<path class="st8" d="M1392.7,294c1.5,4.8,3.3,12.9,1.1,21.8c-1.1,4.1-2.6,6.8-3,7.5c-3.3,5.6-7.8,8.6-10.4,10.1"/>
	<path class="st8" d="M1419.9,266.3c0,7.6,0.1,15.3,0.1,22.9c0,3.4-0.5,7.7-3.8,8.9"/>
	<path class="st8" d="M1361.4,230.3c0.8,5.1-1.1,10.1-2.1,15.1c-2.3,10.7-0.8,22.1,4,31.9"/>
	<path class="st8" d="M1332.7,279c1.7,12.6,2.3,25.5,1.7,38.2"/>
	<path class="st8" d="M1269.8,201.9c-1.1-0.1-1.6,1.3-1.8,2.3c-2.6,17.5-3.4,35.3-2.4,53"/>
	<path class="st9" d="M1228.8,690.9c14.1-5.4,29.1-11.8,44.7-19.6c10.1-5,19.5-10.1,28.3-15.3c-0.2-2.7-0.5-5.6-1.1-8.7
		c-0.9-4.6-2-8.6-3.3-12c-2,1.3-5,3.2-8.7,5.5c-8.7,5.1-16.5,8.8-24,12c-25.6,10.9-38.5,11.8-39.2,18.5c-0.2,2,0.8,2.5,2.2,10.9
		C1228.3,685.9,1228.7,688.9,1228.8,690.9z"/>
	<path class="st9" d="M1236.2,677.5c10.8-4,20.3-10.9,30.6-16.1c7.8-4,16.1-7.1,24.4-10"/>
	<line class="st9" x1="1246.5" y1="677.5" x2="1182.2" y2="382.6"/>
	<path class="st10" d="M1172,351.2c2.2-3.7,5.3-5.6,9.3-7.8c6.5-3.6,15.5-8.3,26.8-13.3c1.3-0.8,3-1.7,4.4-1.1c2.1,1,2,4.9,2.2,8.7
		c0.5,8.3,2,6.1,3.3,17.4c0.6,5.6,1.4,12.1,0,19.6c-0.6,3.1-0.9,5.1-2.2,7.6c-1.8,3.6-3.5,4.3-4.4,7.6c-0.5,2-0.3,3.6,0,6.5
		c0.6,5,1.8,8.7,2.2,9.8c1.6,5,2.7,10.2,4.4,15.3c11.5,35.7,20.8,74.3,28.3,91.6c1,2.2,2.1,6.2,4.4,14.2c1.5,5.1,1.9,7.3,1,9.7
		c-0.6,1.4-1.5,2.4-8.6,6.7c-5.8,3.5-8.8,5.2-12,6.5c-2.8,1.1-6.7,2.5-11.5,3.4c-1.1,0.7-2.4,1.4-3.7,1c-2.2-0.7-3-4.1-3.3-5.5
		c-5.7-25.8-12.5-51.4-17.4-77.4c-3.8-20.1-6.6-26.6-7.6-38.2c-0.1-1-0.9-9.8-3.3-19.6c-0.6-2.4-1.3-4.9-2.2-7.6
		c-1.8-5.5-3.6-9.2-4.4-10.9c-4.5-9.9-5.8-20-6.5-26.2C1169.9,360.3,1169.4,355.7,1172,351.2z"/>
	<line class="st9" x1="1253.6" y1="672.8" x2="1180.3" y2="360.1"/>
	<polyline class="st9" points="1263.7,669.2 1194.5,395.9 1194.5,347 	"/>
	<polyline class="st9" points="1275.6,664.5 1201.4,391.2 1198.9,369.9 	"/>
	<path class="st9" d="M1200,347.8c-2.3,1.3-5.7,0.5-6.2-0.9c-0.5-1.6,2.1-3.9,4.5-4.8c0.5-0.2,3-1.1,4-0.1
		C1203.3,343.1,1202.3,346.5,1200,347.8z"/>
	<path class="st9" d="M1204.4,370.7c-2.3,1.3-5.7,0.5-6.2-0.9c-0.5-1.6,2.1-3.9,4.5-4.8c0.5-0.2,3-1.1,4-0.1
		C1207.7,366,1206.7,369.4,1204.4,370.7z"/>
	<path class="st9" d="M1182,382.4c-2.3,1.6-6,1-6.7-0.7c-0.6-1.5,1.4-3.8,3.4-4.8c1.4-0.7,4-1.3,5.1-0.1
		C1184.8,378.2,1183.8,381.1,1182,382.4z"/>
	<path class="st9" d="M1179.3,360.9c-2.2,1.3-5.6,0.7-6.2-0.9c-0.6-1.6,1.5-3.8,3.4-4.8c1.5-0.7,4.1-1.3,5.1-0.1
		C1182.7,356.4,1181.5,359.6,1179.3,360.9z"/>
	<path class="st9" d="M1215,725.6c23.9,4.3,48.4-3.3,70.2-13.9c3.9-1.9,7.8-3.9,11.5-6.3c20-12.5,34.2-33.8,38.2-57.1"/>
	<path class="st9" d="M1285.4,516.3c2.3,8.8,1.6,18,1.8,27.1s1.6,18.7,7.3,25.7c4.4,5.5,11.2,9.1,14.8,15.1"/>
	<path class="st7" d="M1279.6,614.1c-0.3,3.3,0.3,6.7-0.2,9.8c-0.5,3.5-2.3,6-4.2,7"/>
	<path class="st7" d="M1467.6,571c4.3,1,10.2,2.8,16.4,6.5c3.6,2.1,6.5,4.5,8.7,6.5"/>
	<path class="st7" d="M1219.8,550.9c-1,0.6-2.1,1-3.1,1.6c-3.8,2-7.1,4.9-9.5,8.5"/>
	<path class="st7" d="M1192.4,554.8c1.4-0.3,2.9,0.6,3.9,1.7s1.8,2.4,3,3.3c3.1,2.3,7.7,0.9,11.1,2.7c1,0.5,1.8,1.3,2.8,1.9
		c2.1,1.2,4.6,1,7,0.9"/>
	<path class="st7" d="M1203.9,550.1c2.5,2.4,3.3,6.1,4,9.5"/>
	<path class="st7" d="M1202.1,575.2c-0.2,3.7-1.4,7.4-3.6,10.5"/>
	<path class="st7" d="M1196.6,601.7c2.1-1,4.2-2.4,5.4-4.4c1.2-2,1.4-4.4,1.7-6.8"/>
	<path class="st7" d="M1202.9,606.8c3.3-0.5,7-0.9,9.7,1.1c1.7,1.2,2.7,3.2,3.9,4.9c2.9,4.3,7.5,7.4,12.5,8.6"/>
	<path class="st11" d="M1197.8,383.6c0,1.2,0,2.4-0.1,3.6c-0.3,2.3-1.2,4.1-2.2,5.5"/>
	<path class="st6" d="M1195,468.6c-2.3,1.3-11.4-13.2-11.7-14.6c0,0,0-0.2-0.1-0.4c-0.1-0.4-0.4-1.1-0.9-1.8c-0.8-1.3-2.3-2-3.6-2.8
		c-2.4-1.4-4.7-3-6.7-4.9c-0.9-0.8-1.7-1.7-2.3-2.7c-1.5-2.6-1-5.9-0.5-8.8c-1.9-1-3.2-2.6-4-4.6c-1.1-2.7-0.9-5-0.7-6.2
		c0.4-2.7,1.5-4.6,2.2-5.6c-0.9-1.2-2.5-3.7-2.8-7.1c-0.1-1.4-0.3-3.9,1.2-6.3c0.2-0.4,1-1.5,2.3-2.4c3-2.1,5.1-0.6,8-2.7
		c0.8-0.6,1.5-1.3,2.2-1.1c0.7,0.2,0.9,1.3,1.1,2.2c0.5,1.9,1.6,3.6,2.2,5.5c2.8,8.1,4.1,12.2,4.4,13.1c1.2,4.9,0.8,5.5,2.2,15.3
		c0.1,0.8,1,7.2,2.2,13.1C1192.7,461.7,1196.5,467.7,1195,468.6z"/>
	<path class="st12" d="M1159.1,404.2"/>
	<path class="st7" d="M1182,451.1c1.1,0.4,2.6,0.9,4.4,1.1c1.7,0.2,3.2,0.1,4.4,0"/>
	<path class="st6" d="M1169.3,432.7c0.8-0.2,1.6,0.4,2.2,0.8c2.3,1.5,5,2.1,7.7,2.5s6.6,0.5,9.3,1"/>
	<path class="st6" d="M1166.5,416.2c2,0.4,4.3,0.8,6.7,1.2c1.1,0.2,2.1,0.3,3.3,0c0.4-0.1,2.1-0.6,3.3-2.2c1.3-1.8,1.1-3.7,1.1-4.4
		c0-0.3-0.2-1.7-1.1-3.3c-1.3-2.2-3.4-3.1-4.2-3.4c0.6,0.1,2.7,0.3,4.6-0.9c0.2-0.1,0.4-0.3,0.5-0.4"/>
	<path class="st6" d="M1173.2,417.3c1.5,0.6,4.7,2,7.6,3.3c0.5,0.2,1.2,0.6,2.2,1.1c1.4,0.8,2.5,1.6,3.3,2.2"/>
	<path class="st6" d="M1175.4,404.2c-2-0.6-4-1.1-6-1.7"/>
	<path class="st6" d="M1176.5,404.2c-0.4,0.2-3.5,1.8-4.4,5.5c-1,4.3,2,7.4,2.2,7.6"/>
	<path class="st6" d="M1174.9,417.9c0.6-0.5,3-2.4,3.3-5.9c0-0.5,0-0.8,0-1.2c-0.1-1.3-0.3-4-2-7.1"/>
	<path class="st7" d="M1184.1,422.8c-0.3,0-3.5-0.2-5.5,2.2c-1.6,2-1.2,4.4-1.1,5.5c0.5,3.1,2.6,4.9,3.3,5.5"/>
	<path class="st7" d="M1178.7,435.8c0.5,0.1,3.8,0.5,6.2-1.8c2.3-2.2,2.9-5.9,1.4-9.1"/>
	<path class="st7" d="M1184.1,439c-0.8,1.8-1.2,3.7-1.2,5.7c0,1.3,0.2,2.6,1,3.6"/>
	<path class="st6" d="M1170.6,421.9c-0.1,0-0.1,0-0.2,0.1c-1.5,1.8-2,4.4-1.2,6.6"/>
	<path class="st12" d="M1166.7,415.1"/>
	<path class="st11" d="M1192.6,390.6c-0.7-1.1-1.2-2.4-1.3-3.8c-0.1-1.4,0.3-2.8,1.1-3.8"/>
	<path class="st6" d="M1252.6,425.7c-3.3-3.5-4-4.8-6.4-6.8c-2.4-2-5.1-3.5-7.5-5.4c-8.9-7-16.2-19.7-18.6-25.8
		c-0.5-1.3-1.5-4-4.1-5.2c-1.2-0.5-2.3-0.5-6.5,0c-6.8,0.9-6,1.1-7.6,1.1c-3.3-0.1-5-1.1-10-1.1c-0.9,0-2.2,0-2.9,0.9
		c-1.1,1.2-0.3,3.4-0.2,3.5c0.6,1.5,1.8,2.3,2.6,2.9c8.4,5.6,7.8,6,10,6.5c4,0.9,6-0.7,7.5,1c1.2,1.4,0.2,2.8,1.6,4.9
		c0.3,0.5,0.4,0.4,0.8,0.9c1.6,1.9,1.7,4.2,1.9,6.2c0.2,2.2,0.9,4.3,1.1,6.5c0.9,9.3,9,21.5,12,39.2c0,0,2.4,14.1,6.5,21.8
		c0.5,1,1.5,2.6,3.3,4.1c2.8,2.3,5.7,2.6,7.6,3.1c7.8,2,15.1,9.2,22.4,16.3c0.7,0.6,2.4,2.4,4.3,2.1c1.2-0.2,1.8-1,3.3-2.2
		c2.5-2,3.6-2,5.5-3.3c1.2-0.8,1.9-1.6,5.5-7.6c3.2-5.3,4.8-8,5.5-9.8c1.2-3.2,1.7-5.7,2.2-8.7c0.8-4.5,1.1-6.9,0-8.7
		c-1.2-2-3.4-2.5-5.5-3.3c-3-1.2-3.7-2.4-12-10.9c-3.7-3.8-9.9-10.2-16.4-16.4C1256.5,429.5,1254.9,428.1,1252.6,425.7z"/>
	<path class="st6" d="M1186.9,576.5c-1.9-2.8-5.6-8.4-5.5-13.1c0.3-6.3,7.5-10.6,12.5-13.6c1.5-0.9,7.2-2.5,18.5-5.5
		c2.2-0.6,5.5-1.4,6.9,0.2c0.5,0.6,0.6,1.8,0.7,4.2c0.2,2.7,0.2,4,0,4.9c-0.8,2.8-2.7,3.1-3.3,5.5c-0.2,1-0.2,2.6,1.1,4.9
		c1.2,0.9,3.1,2,5.5,2.2c1.8,0.1,2.7-0.4,7.6-2.2c0,0,2.9-1,6.5-2.2c4.4-1.4,6.6-2.1,7.6-2.2c5.2-0.5,9.5,2.2,13.1,4.4
		c2.3,1.4,3.9,2.8,7,5.4c3.6,3.1,4.1,4,7.2,6.6c2.1,1.8,4.5,3.7,7.6,5.5c2.9,1.6,3.8,1.5,13.1,4.4c7.5,2.3,7.8,2.7,10.9,3.3
		c4.3,0.9,7.4,1,10.9,1.1c6.9,0.3,13.8,0.8,20.7,1.1c16.2,0.6,16.7,1,22.9,1.1c4.3,0.1,18.7,0.2,36-3.3c17.6-3.5,46.5-11.1,49.1-12
		c3.7-1.3,10.7-2.3,14.2-3.3c2.6-0.7,9.1-1.5,9.8-2.2c1-1-0.7-4.1-2.2-7.6c-0.9-2.2-1.9-7.4-3.8-18c-0.4-2.2-1-5.4-1.6-9.3
		c1.6-0.2,4.1-0.5,7.1-0.5c8.5-0.2,9.7,1.6,16.9,1.6c7.8,0,9.3-1.9,15-0.5c2.4,0.6,2.2,1,6.8,2.6c2.2,0.8,7.6,2.8,12,3.5
		c11.2,1.8,15.8-4.8,20.7-1.3c2,1.4,3.2,4.2,5.5,9.8c1.2,2.9,1.9,5.3,2.2,6.5c2.3,9,2.2,19.1,2.2,22.9c0.1,15.1,4.1,13.8,4.4,28.5
		c0.3,10.5,0.5,19.5-5.5,28.2c-0.4,0.5-8.7,12.3-22.9,14.2c-6.1,0.8-10.9-0.5-13.1-1.1c-20.2-5.2-32.9,1.4-72.3,2
		c-16,0.2-28.1-0.6-35.2-1.1c-28.3-2.1-30.4-5.2-73.4-10.6c-7.6-1-30.9-3.9-45.8-5.5c-2.1-0.2-4.3-0.5-7.7-0.9
		c-15.2-1.8-15.6-2.5-21.9-2.8c-7.2-0.3-6.7,0.7-17.3,0.4c-6.5-0.2-9.9,1.1-13.1-1.1c-1.5-1.1-2.9-2.7-6-3.8
		c-1.4-0.5-2.9-0.8-4.4-1.1c-3.9-0.8-4.3-0.4-5.5-1.1c-1.8-1.1-1.2-2.4-3.3-5.5c-1.9-2.9-4.3-4.7-5.5-5.5c-2.7-1.9-3.3-1.4-5.5-3.3
		c-2.2-1.9-3.3-3.9-3.8-4.9c-0.5-1.1-1.7-3.7-1.6-7.1c0-4,1.7-4.3,2.2-8.7c0.1-1.1,0.4-4.7-1.1-8.7
		C1189.2,579.5,1188.2,578.5,1186.9,576.5z"/>
	<path class="st9" d="M1216.8,543.8c-11.7-53.7-23.5-107.5-35.2-161.2"/>
	<path class="st7" d="M1279,614.1c-0.3,3.3,0.3,6.7-0.2,9.8c-0.5,3.5-2.3,6-4.2,7"/>
	<path class="st7" d="M1220.1,550.3c-1.3,0.6-2.6,1.3-3.9,2.2c-4.3,2.7-7.3,5.8-9.5,8.5"/>
	<path class="st7" d="M1191.9,554.8c1.4-0.3,2.9,0.6,3.9,1.7c1,1.1,1.8,2.4,3,3.3c3.1,2.3,7.7,0.9,11.1,2.7c1,0.5,1.8,1.3,2.8,1.9
		c2.1,1.2,4.6,1,7,0.9"/>
	<path class="st7" d="M1203.4,550.1c2.5,2.4,3.3,6.1,4,9.5"/>
	<path class="st7" d="M1201.6,575.2c-0.2,3.7-1.4,7.4-3.6,10.5"/>
	<path class="st7" d="M1196.1,601.7c2.1-1,4.2-2.4,5.4-4.4c1.2-2,1.4-4.4,1.7-6.8"/>
	<path class="st7" d="M1202.3,606.8c3.3-0.5,7-0.9,9.7,1.1c1.7,1.2,2.7,3.2,3.9,4.9c2.9,4.3,7.5,7.4,12.5,8.6"/>
	<path class="st7" d="M1191.8,382.4c0,0.4-0.1,1.3,0.4,2.2c0.5,0.9,1.3,1.3,1.9,1.7c0.3,0.1,1.2,0.6,2.5,0.7c0,0,0.9,0,1.8-0.2
		c2.4-0.6,4-2.8,4.4-3.3"/>
	<path class="st6" d="M1220.1,551.4"/>
</g>
<g id="Layer_7" class="st0">
	
		<image style="display:inline;overflow:visible;enable-background:new    ;" width="1200" height="900" id="Image_1" xlink:href="ADAB1377.png"  transform="matrix(1 0 0 1 595 -1067)">
	</image>
</g>
<g id="Layer_3">
	<path class="st2" d="M1287.8,477.4c-2.6,7.5-6.3,15-12.7,19.7c-1.5,1.1-3.2,2.1-4.5,3.4c-1.3,1.4-2.2,3.3-1.7,5.1
		c6.2-1.6,12.8-3.4,16.7-8.4c3-3.8,3.9-8.9,6.3-13.2c1.1-1.9,2.5-3.7,3.4-5.7c1.5-3,1.9-6.4,2.4-9.8c0.3-2.1,0.6-4.3,0.3-6.4
		c-0.3-2.1-1.3-5.7-3-7.2c-2.8-2.5-2.3,1.5-2.7,3.8C1291.4,465.1,1289.9,471.3,1287.8,477.4z"/>
</g>
<g id="Layer_6">
	<path class="st2" d="M1542.8,551.4c-0.5-1.1-1.2-2.6-2.2-4.4c-2.3-4.2-3.3-4.7-3.6-4.8c-1.7-0.8-3.1,0.2-6.1,1.2
		c0,0-6.5,2.1-13.3,1.2c-3.7-0.5-6.9-1.8-8.5-2.4c-2.4-1-3.4-1.6-6.1-2.4c-0.8-0.2-2.9-0.9-6.1-1.2c-4.1-0.5-6.7-0.1-9.7,0
		c-13,0.6-16.4-3.3-21.8-1.2c-0.7,0.3-3.2,1.3-5.2,0.2c-0.3-0.2-1.2-0.6-1.3-1.4c-0.4-1.7,0.8-3.5,2.4-4.3c1.5-0.8,3.3-1,5.1-1.1
		c8.8-0.5,17.5-0.8,26.3-0.9c15-0.1,30.3,0.5,44.5,5.3c1.4,0.5,2.7,1,3.8,1.9c0.6,0.6,1.1,1.2,1.6,1.9c1.8,2.6,2.3,4.6,3.7,7.9
		c1.5,3.6,2.1,4.4,1.6,5C1547,553,1543.7,551.8,1542.8,551.4z"/>
	<rect y="1063" class="st2" width="1920" height="537"/>
</g>
</svg>
